<svg width="83" height="27" viewBox="0 0 83 27" fill="none" xmlns="http://www.w3.org/2000/svg">
<g clip-path="url(#clip0_2045_47)">
<path d="M8.69993 11.9291C8.71758 11.4074 8.4949 10.9051 8.09622 10.568C7.45778 10.1083 6.73618 9.77574 5.97187 9.58837C4.54292 9.23526 3.19142 8.6213 1.98515 7.77726C1.09668 7.10635 0.590371 6.0419 0.629668 4.9296C0.617139 3.74213 1.20204 2.62414 2.18449 1.95665C3.35032 1.14677 4.75307 0.745825 6.1712 0.817586C7.61326 0.753229 9.03082 1.21455 10.1579 2.11612C11.1341 2.88442 11.6848 4.07588 11.6387 5.31688V5.37384H8.75688C8.78023 4.74621 8.5285 4.13795 8.06775 3.7108C7.53068 3.26144 6.84155 3.03477 6.14273 3.07863C5.48606 3.03819 4.83508 3.22329 4.29745 3.60259C3.8834 3.92951 3.64363 4.43069 3.64818 4.95808C3.65786 5.43648 3.90333 5.88015 4.30314 6.1427C5.05094 6.5858 5.85568 6.92467 6.69517 7.15077C8.0518 7.46572 9.32071 8.08082 10.4085 8.95049C11.2497 9.69202 11.7145 10.7741 11.6729 11.895C11.7116 13.0842 11.1449 14.2152 10.1693 14.8964C8.99494 15.6852 7.59504 16.0708 6.1826 15.9956C4.68074 16.0292 3.20509 15.5929 1.96237 14.7483C0.793691 13.9829 0.122782 12.6456 0.208212 11.2514V11.1888H3.16408C3.10086 11.9286 3.40328 12.6547 3.97281 13.1309C4.64315 13.5814 5.44448 13.7978 6.25094 13.7459C6.90647 13.7904 7.55858 13.6138 8.10192 13.2448C8.50116 12.9281 8.72385 12.4377 8.69993 11.9291Z" fill="#484848"/>
<path d="M20.25 14.213C19.9385 14.7592 19.4937 15.2176 18.9572 15.5457C17.4684 16.3704 15.5998 16.1038 14.4009 14.8964C13.7477 14.1372 13.4213 12.9828 13.4213 11.4337V4.78723H16.3829V11.4678C16.3379 12.0653 16.4791 12.6627 16.7873 13.1764C17.08 13.5341 17.5276 13.7294 17.989 13.7004C18.4087 13.7095 18.825 13.632 19.2135 13.4726C19.5461 13.3222 19.8331 13.0864 20.045 12.7891V4.78723H23.0179V15.7963H20.4835L20.25 14.213Z" fill="#484848"/>
<path d="M34.9838 10.5964C35.0521 11.9964 34.6512 13.3797 33.8447 14.5262C33.1038 15.5115 31.9208 16.0685 30.6895 16.0127C30.1598 16.0212 29.6347 15.9125 29.1518 15.6938C28.7036 15.4716 28.3134 15.1481 28.0127 14.7483V20.0336H25.0511V4.78723H27.728L27.9045 6.08576C28.2052 5.6307 28.6067 5.25083 29.0777 4.97517C29.5692 4.70579 30.1234 4.57024 30.6838 4.5822C31.9453 4.53265 33.1465 5.13863 33.8561 6.18258C34.6665 7.42985 35.0652 8.90038 34.9952 10.3857L34.9838 10.5964ZM32.0108 10.3686C32.045 9.49611 31.8667 8.62872 31.4926 7.83992C31.201 7.2328 30.5767 6.85235 29.9036 6.87171C29.5066 6.86032 29.113 6.95486 28.7645 7.14509C28.4473 7.33417 28.1876 7.60584 28.0127 7.93104V12.7664C28.1904 13.0705 28.4513 13.3177 28.7645 13.4783C29.1193 13.6497 29.51 13.7334 29.9036 13.7232C30.5483 13.763 31.1628 13.4339 31.4869 12.8746C31.8548 12.1735 32.0302 11.3875 31.9937 10.5964L32.0108 10.3686Z" fill="#484848"/>
<path d="M41.4423 16.0127C40.0122 16.0776 38.6219 15.5206 37.6321 14.4863C36.6685 13.4304 36.157 12.0368 36.2083 10.6078V10.2035C36.1502 8.73636 36.6303 7.29772 37.5581 6.1598C39.4409 4.16473 42.6269 4.05937 44.6373 5.92629C45.5019 6.93265 45.9467 8.2346 45.8789 9.5599V11.1774H39.2894V11.24C39.3179 11.9007 39.5759 12.5311 40.0184 13.0227C40.4741 13.4988 41.1142 13.7545 41.7726 13.7232C42.3262 13.7357 42.8786 13.6685 43.4128 13.5238C43.9078 13.3644 44.385 13.1548 44.8367 12.8974L45.6397 14.7369C45.1135 15.1453 44.5172 15.454 43.8799 15.6482C43.0928 15.9022 42.2692 16.0252 41.4423 16.0127ZM41.1746 6.90019C40.6626 6.8831 40.1739 7.12003 39.8704 7.53237C39.5338 8.02273 39.3367 8.59568 39.3008 9.1897L39.3293 9.24096H42.9743V8.97898C43.0022 8.43849 42.8456 7.9037 42.5301 7.46402C42.2031 7.05681 41.6957 6.83526 41.1746 6.87171V6.90019Z" fill="#484848"/>
<path d="M53.4537 7.33871H52.3602C51.9792 7.32333 51.601 7.41844 51.2724 7.61208C50.9842 7.8006 50.7581 8.06998 50.6231 8.38664V15.7962H47.6616V4.78721H50.4352L50.5662 6.41607C50.786 5.89039 51.1323 5.42622 51.5742 5.06628C51.9786 4.74506 52.4821 4.5742 52.9981 4.58218C53.1353 4.58104 53.2726 4.59243 53.4081 4.61635L53.7897 4.70178L53.4537 7.33871Z" fill="#484848"/>
<path d="M60.869 12.7663C60.8621 12.4229 60.6845 12.1045 60.3963 11.9177C59.8575 11.5982 59.2618 11.3852 58.6421 11.2913C57.5845 11.1255 56.5776 10.7223 55.6976 10.1123C55.041 9.61114 54.6685 8.81949 54.701 7.99367C54.6992 7.04483 55.1423 6.14839 55.897 5.57316C56.8128 4.87435 57.9473 4.52295 59.0977 4.58218C60.2949 4.51953 61.4789 4.86751 62.4523 5.56747C63.2434 6.14497 63.6933 7.08356 63.6483 8.06201V8.12466H60.8006C60.8154 7.72143 60.6628 7.3296 60.3792 7.04255C60.0369 6.74469 59.5898 6.5949 59.1376 6.62679C58.7281 6.60401 58.3232 6.72931 57.9985 6.9799C57.7343 7.19348 57.5828 7.51754 57.5885 7.85698C57.5834 8.19073 57.7462 8.50568 58.0213 8.69419C58.5629 8.99775 59.1592 9.19082 59.7755 9.26372C60.8621 9.42376 61.8976 9.83326 62.7997 10.4597C63.4558 10.9831 63.8226 11.7913 63.785 12.6297C63.7952 13.6007 63.318 14.5148 62.5149 15.0616C61.5257 15.729 60.3467 16.0588 59.1547 16.0013C57.896 16.0651 56.6573 15.659 55.6806 14.8622C54.8872 14.2745 54.4196 13.3433 54.4219 12.3563V12.2993H57.1385C57.1101 12.7931 57.3225 13.2709 57.7081 13.5808C58.1324 13.8621 58.6347 14.0017 59.1433 13.9794C59.5858 14.0074 60.0249 13.8912 60.3963 13.6491C60.6936 13.4549 60.8724 13.1217 60.869 12.7663Z" fill="#484848"/>
<path d="M70.289 16.0127C68.8607 16.0776 67.4721 15.5206 66.4846 14.4863C65.5209 13.4304 65.0095 12.0368 65.0607 10.6078V10.2035C65.0032 8.7375 65.4816 7.29943 66.4048 6.1598C68.2877 4.16473 71.4737 4.05937 73.4841 5.92629C74.3509 6.93151 74.794 8.2346 74.72 9.5599V11.1774H68.1419V11.24C68.1687 11.9001 68.425 12.5306 68.8652 13.0227C69.322 13.5005 69.965 13.7562 70.6251 13.7232C71.1769 13.7357 71.7271 13.6685 72.2596 13.5238C72.7568 13.3655 73.2358 13.1559 73.6891 12.8974L74.4922 14.7369C73.9654 15.1442 73.3691 15.4528 72.7323 15.6482C71.9435 15.9022 71.1177 16.0252 70.289 16.0127ZM70.027 6.90019C69.5145 6.88082 69.0252 7.11832 68.7228 7.53237C68.3862 8.0233 68.1897 8.59568 68.1533 9.1897L68.1875 9.24096H71.8325V8.97898C71.8604 8.43849 71.7037 7.9037 71.3882 7.46402C71.0602 7.0551 70.5499 6.83298 70.027 6.87171V6.90019Z" fill="#484848"/>
<path d="M80.2501 2.08765V4.78722H82.1068V6.87171H80.2501V12.4816C80.2194 12.8102 80.3156 13.1383 80.5178 13.3985C80.7057 13.5859 80.9643 13.6856 81.2297 13.6719C81.363 13.6725 81.4963 13.6634 81.6284 13.6434C81.7611 13.6224 81.8921 13.5939 82.0214 13.558L82.2776 15.7051C81.9917 15.8048 81.6984 15.8828 81.4006 15.9386C81.0953 15.9876 80.7872 16.0127 80.4779 16.0127C79.606 16.0708 78.7477 15.7655 78.1087 15.1698C77.4924 14.4208 77.194 13.4595 77.2772 12.493V6.87171H75.6711V4.78722H77.2772V2.08765H80.2501Z" fill="#484848"/>
<path d="M36.3672 21.5127V25.9219H35.3828V20.8018H36.2954L36.3672 21.5127ZM38.7085 22.6099V22.6816C38.7085 22.9505 38.6766 23.2 38.6128 23.4302C38.5513 23.6603 38.4601 23.8608 38.3394 24.0317C38.2186 24.2004 38.0682 24.3325 37.8882 24.4282C37.7104 24.5216 37.5054 24.5684 37.2729 24.5684C37.0474 24.5684 36.8514 24.5228 36.6851 24.4316C36.5187 24.3405 36.3786 24.2129 36.2646 24.0488C36.153 23.8825 36.063 23.6899 35.9946 23.4712C35.9263 23.2524 35.8739 23.0177 35.8374 22.7671V22.5791C35.8739 22.3102 35.9263 22.0641 35.9946 21.8408C36.063 21.6152 36.153 21.4204 36.2646 21.2563C36.3786 21.09 36.5176 20.9613 36.6816 20.8701C36.848 20.779 37.0428 20.7334 37.2661 20.7334C37.5008 20.7334 37.707 20.7778 37.8848 20.8667C38.0648 20.9556 38.2152 21.0832 38.3359 21.2495C38.459 21.4159 38.5513 21.6141 38.6128 21.8442C38.6766 22.0744 38.7085 22.3296 38.7085 22.6099ZM37.7207 22.6816V22.6099C37.7207 22.4526 37.707 22.3079 37.6797 22.1758C37.6546 22.0413 37.6136 21.924 37.5566 21.8237C37.502 21.7235 37.429 21.646 37.3379 21.5913C37.249 21.5343 37.1408 21.5059 37.0132 21.5059C36.8787 21.5059 36.7637 21.5275 36.668 21.5708C36.5745 21.6141 36.4982 21.6768 36.439 21.7588C36.3797 21.8408 36.3353 21.9388 36.3057 22.0527C36.276 22.1667 36.2578 22.2954 36.251 22.439V22.9141C36.2624 23.0827 36.2943 23.2342 36.3467 23.3687C36.3991 23.5008 36.48 23.6056 36.5894 23.6831C36.6987 23.7606 36.8423 23.7993 37.02 23.7993C37.1499 23.7993 37.2593 23.7708 37.3481 23.7139C37.437 23.6546 37.5088 23.5737 37.5635 23.4712C37.6204 23.3687 37.6603 23.2502 37.6831 23.1157C37.7082 22.9813 37.7207 22.8366 37.7207 22.6816ZM39.1631 22.6885V22.6167C39.1631 22.3455 39.2018 22.096 39.2793 21.8682C39.3568 21.638 39.4696 21.4386 39.6177 21.27C39.7658 21.1014 39.9481 20.9704 40.1646 20.877C40.381 20.7812 40.6294 20.7334 40.9097 20.7334C41.1899 20.7334 41.4395 20.7812 41.6582 20.877C41.877 20.9704 42.0604 21.1014 42.2085 21.27C42.3589 21.4386 42.4728 21.638 42.5503 21.8682C42.6278 22.096 42.6665 22.3455 42.6665 22.6167V22.6885C42.6665 22.9574 42.6278 23.2069 42.5503 23.437C42.4728 23.6649 42.3589 23.8643 42.2085 24.0352C42.0604 24.2038 41.8781 24.3348 41.6616 24.4282C41.4451 24.5216 41.1968 24.5684 40.9165 24.5684C40.6362 24.5684 40.3867 24.5216 40.168 24.4282C39.9515 24.3348 39.7681 24.2038 39.6177 24.0352C39.4696 23.8643 39.3568 23.6649 39.2793 23.437C39.2018 23.2069 39.1631 22.9574 39.1631 22.6885ZM40.1475 22.6167V22.6885C40.1475 22.8434 40.1611 22.9881 40.1885 23.1226C40.2158 23.257 40.2591 23.3755 40.3184 23.478C40.3799 23.5783 40.4596 23.6569 40.5576 23.7139C40.6556 23.7708 40.7752 23.7993 40.9165 23.7993C41.0532 23.7993 41.1706 23.7708 41.2686 23.7139C41.3665 23.6569 41.4451 23.5783 41.5044 23.478C41.5636 23.3755 41.6069 23.257 41.6343 23.1226C41.6639 22.9881 41.6787 22.8434 41.6787 22.6885V22.6167C41.6787 22.4663 41.6639 22.325 41.6343 22.1929C41.6069 22.0584 41.5625 21.9399 41.501 21.8374C41.4417 21.7326 41.3631 21.6506 41.2651 21.5913C41.1672 21.5321 41.0487 21.5024 40.9097 21.5024C40.7707 21.5024 40.6522 21.5321 40.5542 21.5913C40.4585 21.6506 40.3799 21.7326 40.3184 21.8374C40.2591 21.9399 40.2158 22.0584 40.1885 22.1929C40.1611 22.325 40.1475 22.4663 40.1475 22.6167ZM44.3276 23.543L45.0967 20.8018H45.7222L45.5205 21.8784L44.7515 24.5H44.2285L44.3276 23.543ZM43.938 20.8018L44.4883 23.5396L44.5396 24.5H43.9243L42.9878 20.8018H43.938ZM46.4263 23.4951L46.9629 20.8018H47.9165L46.98 24.5H46.3682L46.4263 23.4951ZM45.8076 20.8018L46.5732 23.5225L46.6792 24.5H46.1528L45.3838 21.8818L45.189 20.8018H45.8076ZM50.1143 24.5684C49.8271 24.5684 49.5697 24.5228 49.3418 24.4316C49.1139 24.3382 48.9202 24.2095 48.7607 24.0454C48.6035 23.8813 48.4827 23.6911 48.3984 23.4746C48.3141 23.2559 48.272 23.0234 48.272 22.7773V22.6406C48.272 22.3604 48.3118 22.104 48.3916 21.8716C48.4714 21.6392 48.5853 21.4375 48.7334 21.2666C48.8838 21.0957 49.0661 20.9647 49.2803 20.8735C49.4945 20.7801 49.736 20.7334 50.0049 20.7334C50.2669 20.7334 50.4993 20.7767 50.7021 20.8633C50.9049 20.9499 51.0747 21.0729 51.2114 21.2324C51.3504 21.3919 51.4552 21.5833 51.5259 21.8066C51.5965 22.0277 51.6318 22.2738 51.6318 22.5449V22.9551H48.6924V22.2988H50.6646V22.2236C50.6646 22.0869 50.6395 21.965 50.5894 21.8579C50.5415 21.7485 50.4686 21.6619 50.3706 21.5981C50.2726 21.5343 50.1473 21.5024 49.9946 21.5024C49.8647 21.5024 49.7531 21.5309 49.6597 21.5879C49.5662 21.6449 49.4899 21.7246 49.4307 21.8271C49.3737 21.9297 49.3304 22.0505 49.3008 22.1895C49.2734 22.3262 49.2598 22.4766 49.2598 22.6406V22.7773C49.2598 22.9255 49.2803 23.0622 49.3213 23.1875C49.3646 23.3128 49.425 23.4211 49.5024 23.5122C49.5822 23.6034 49.6779 23.674 49.7896 23.7241C49.9035 23.7743 50.0322 23.7993 50.1758 23.7993C50.3535 23.7993 50.5187 23.7651 50.6714 23.6968C50.8263 23.6261 50.9596 23.5202 51.0713 23.3789L51.5498 23.8984C51.4723 24.0101 51.3664 24.1172 51.2319 24.2197C51.0998 24.3223 50.9403 24.4066 50.7534 24.4727C50.5666 24.5365 50.3535 24.5684 50.1143 24.5684ZM53.1768 21.6084V24.5H52.1924V20.8018H53.1187L53.1768 21.6084ZM54.291 20.7778L54.2739 21.6904C54.2261 21.6836 54.168 21.6779 54.0996 21.6733C54.0335 21.6665 53.9731 21.6631 53.9185 21.6631C53.7795 21.6631 53.6587 21.6813 53.5562 21.7178C53.4559 21.752 53.3716 21.8032 53.3032 21.8716C53.2371 21.9399 53.187 22.0231 53.1528 22.1211C53.1209 22.2191 53.1027 22.3307 53.0981 22.4561L52.8999 22.3945C52.8999 22.1553 52.9238 21.9354 52.9717 21.7349C53.0195 21.5321 53.089 21.3555 53.1802 21.2051C53.2736 21.0547 53.3875 20.9385 53.522 20.8564C53.6564 20.7744 53.8102 20.7334 53.9834 20.7334C54.0381 20.7334 54.0939 20.738 54.1509 20.7471C54.2078 20.7539 54.2546 20.7642 54.291 20.7778ZM56.3896 24.5684C56.1025 24.5684 55.8451 24.5228 55.6172 24.4316C55.3893 24.3382 55.1956 24.2095 55.0361 24.0454C54.8789 23.8813 54.7581 23.6911 54.6738 23.4746C54.5895 23.2559 54.5474 23.0234 54.5474 22.7773V22.6406C54.5474 22.3604 54.5872 22.104 54.667 21.8716C54.7467 21.6392 54.8607 21.4375 55.0088 21.2666C55.1592 21.0957 55.3415 20.9647 55.5557 20.8735C55.7699 20.7801 56.0114 20.7334 56.2803 20.7334C56.5423 20.7334 56.7747 20.7767 56.9775 20.8633C57.1803 20.9499 57.3501 21.0729 57.4868 21.2324C57.6258 21.3919 57.7306 21.5833 57.8013 21.8066C57.8719 22.0277 57.9072 22.2738 57.9072 22.5449V22.9551H54.9678V22.2988H56.9399V22.2236C56.9399 22.0869 56.9149 21.965 56.8647 21.8579C56.8169 21.7485 56.744 21.6619 56.646 21.5981C56.548 21.5343 56.4227 21.5024 56.27 21.5024C56.1401 21.5024 56.0285 21.5309 55.9351 21.5879C55.8416 21.6449 55.7653 21.7246 55.7061 21.8271C55.6491 21.9297 55.6058 22.0505 55.5762 22.1895C55.5488 22.3262 55.5352 22.4766 55.5352 22.6406V22.7773C55.5352 22.9255 55.5557 23.0622 55.5967 23.1875C55.64 23.3128 55.7004 23.4211 55.7778 23.5122C55.8576 23.6034 55.9533 23.674 56.0649 23.7241C56.1789 23.7743 56.3076 23.7993 56.4512 23.7993C56.6289 23.7993 56.7941 23.7651 56.9468 23.6968C57.1017 23.6261 57.235 23.5202 57.3467 23.3789L57.8252 23.8984C57.7477 24.0101 57.6418 24.1172 57.5073 24.2197C57.3752 24.3223 57.2157 24.4066 57.0288 24.4727C56.842 24.5365 56.6289 24.5684 56.3896 24.5684ZM60.6519 23.6934V19.25H61.6431V24.5H60.751L60.6519 23.6934ZM58.314 22.6953V22.6235C58.314 22.341 58.3459 22.0846 58.4097 21.8545C58.4735 21.6221 58.5669 21.4227 58.6899 21.2563C58.813 21.09 58.9645 20.9613 59.1445 20.8701C59.3245 20.779 59.5296 20.7334 59.7598 20.7334C59.9762 20.7334 60.1654 20.779 60.3271 20.8701C60.4912 20.9613 60.6302 21.0911 60.7441 21.2598C60.8604 21.4261 60.9538 21.6232 61.0244 21.8511C61.0951 22.0767 61.1463 22.3239 61.1782 22.5928V22.75C61.1463 23.0075 61.0951 23.2467 61.0244 23.4678C60.9538 23.6888 60.8604 23.8825 60.7441 24.0488C60.6302 24.2129 60.4912 24.3405 60.3271 24.4316C60.1631 24.5228 59.9717 24.5684 59.7529 24.5684C59.5228 24.5684 59.3177 24.5216 59.1377 24.4282C58.96 24.3348 58.8096 24.2038 58.6865 24.0352C58.5658 23.8665 58.4735 23.6683 58.4097 23.4404C58.3459 23.2126 58.314 22.9642 58.314 22.6953ZM59.2983 22.6235V22.6953C59.2983 22.848 59.3097 22.9904 59.3325 23.1226C59.3576 23.2547 59.3975 23.3721 59.4521 23.4746C59.5091 23.5749 59.582 23.6535 59.6709 23.7104C59.762 23.7651 59.8726 23.7925 60.0024 23.7925C60.1711 23.7925 60.3101 23.7549 60.4194 23.6797C60.5288 23.6022 60.612 23.4963 60.6689 23.3618C60.7282 23.2274 60.7624 23.0724 60.7715 22.897V22.4492C60.7646 22.3057 60.7441 22.1769 60.71 22.063C60.6781 21.9468 60.6302 21.8477 60.5664 21.7656C60.5049 21.6836 60.4274 21.6198 60.334 21.5742C60.2428 21.5286 60.1346 21.5059 60.0093 21.5059C59.8817 21.5059 59.7723 21.5355 59.6812 21.5947C59.59 21.6517 59.516 21.7303 59.459 21.8306C59.4043 21.9308 59.3633 22.0493 59.3359 22.186C59.3109 22.3205 59.2983 22.4663 59.2983 22.6235ZM64.1553 19.25H65.1396V23.6523L65.0405 24.5H64.1553V19.25ZM67.481 22.6133V22.6851C67.481 22.9608 67.4513 23.2137 67.3921 23.4438C67.3351 23.674 67.2463 23.8734 67.1255 24.042C67.0047 24.2083 66.8543 24.3382 66.6743 24.4316C66.4966 24.5228 66.2869 24.5684 66.0454 24.5684C65.8198 24.5684 65.6239 24.5228 65.4575 24.4316C65.2935 24.3405 65.1556 24.2118 65.0439 24.0454C64.9323 23.8791 64.8423 23.6842 64.7739 23.4609C64.7056 23.2376 64.6543 22.9938 64.6201 22.7295V22.5723C64.6543 22.3079 64.7056 22.0641 64.7739 21.8408C64.8423 21.6175 64.9323 21.4227 65.0439 21.2563C65.1556 21.09 65.2935 20.9613 65.4575 20.8701C65.6216 20.779 65.8153 20.7334 66.0386 20.7334C66.2824 20.7334 66.4943 20.7801 66.6743 20.8735C66.8566 20.9647 67.007 21.0946 67.1255 21.2632C67.2463 21.4295 67.3351 21.6278 67.3921 21.8579C67.4513 22.0858 67.481 22.3376 67.481 22.6133ZM66.4966 22.6851V22.6133C66.4966 22.4629 66.4852 22.3216 66.4624 22.1895C66.4419 22.055 66.4054 21.9377 66.353 21.8374C66.3006 21.7349 66.2288 21.654 66.1377 21.5947C66.0488 21.5355 65.9338 21.5059 65.7925 21.5059C65.658 21.5059 65.5441 21.5286 65.4507 21.5742C65.3573 21.6198 65.2798 21.6836 65.2183 21.7656C65.159 21.8477 65.1146 21.9456 65.085 22.0596C65.0553 22.1712 65.0371 22.2943 65.0303 22.4287V22.8765C65.0371 23.0565 65.0667 23.216 65.1191 23.355C65.1738 23.4917 65.2559 23.5999 65.3652 23.6797C65.4769 23.7572 65.6216 23.7959 65.7993 23.7959C65.9383 23.7959 66.0534 23.7686 66.1445 23.7139C66.2357 23.6592 66.3063 23.5817 66.3564 23.4814C66.4089 23.3812 66.4453 23.2638 66.4658 23.1294C66.4863 22.9927 66.4966 22.8446 66.4966 22.6851ZM69.1489 24.083L70.1299 20.8018H71.186L69.6992 25.0571C69.6673 25.1506 69.624 25.2508 69.5693 25.3579C69.5169 25.465 69.4451 25.5664 69.354 25.6621C69.2651 25.7601 69.1523 25.8398 69.0156 25.9014C68.8812 25.9629 68.716 25.9937 68.52 25.9937C68.4266 25.9937 68.3503 25.988 68.291 25.9766C68.2318 25.9652 68.1611 25.9492 68.0791 25.9287V25.2075C68.1042 25.2075 68.1304 25.2075 68.1577 25.2075C68.1851 25.2098 68.2113 25.2109 68.2363 25.2109C68.3662 25.2109 68.4722 25.1961 68.5542 25.1665C68.6362 25.1369 68.7023 25.0913 68.7524 25.0298C68.8026 24.9705 68.8424 24.8931 68.8721 24.7974L69.1489 24.083ZM68.7388 20.8018L69.542 23.4814L69.6821 24.5239L69.0122 24.5957L67.6826 20.8018H68.7388Z" fill="#484848"/>
<path d="M75.0729 24.4657V24.9612C75.0729 25.452 75.4252 25.734 75.8501 25.734H76.1432V24.4653H75.0729V24.4657Z" fill="#FF9F6B"/>
<path d="M81.2688 22.486C81.2688 21.977 81.1678 21.5119 80.9841 21.1031C80.7352 20.9359 80.4586 20.8029 80.1605 20.7076C80.1838 20.8721 80.1959 21.042 80.1959 21.2173C80.1959 23.1497 78.7556 24.4657 76.8802 24.4657H76.1428V25.7344H77.9528C79.8285 25.7344 81.2688 24.4184 81.2688 22.486Z" fill="#FF7D11"/>
<path d="M75.8501 19.2687H77.9535C78.6954 19.2687 79.3689 19.4713 79.9123 19.8355C79.4036 18.7005 78.2597 18 76.8806 18H74.7772C74.3523 18 74 18.3135 74 18.8042V23.6929C74 24.1836 74.3523 24.4657 74.7772 24.4657H75.0726V20.0729C75.0729 19.5821 75.4252 19.2687 75.8501 19.2687Z" fill="#FD886D"/>
<path d="M76.1432 21.3392C76.1432 20.8484 76.4954 20.535 76.9203 20.535H79.0238C79.4261 20.535 79.8087 20.5948 80.1609 20.7076C80.1169 20.3952 80.0321 20.1033 79.9123 19.8355C79.3689 19.4713 78.6951 19.2687 77.9535 19.2687H75.8501C75.4252 19.2687 75.0729 19.5821 75.0729 20.0729V24.4657H76.1432V21.3392Z" fill="#FE6E42"/>
<path d="M76.9203 20.535C76.4954 20.535 76.1431 20.8485 76.1431 21.3392V24.466H76.8806C78.7559 24.466 80.1962 23.1497 80.1962 21.2176C80.1962 21.0423 80.1841 20.8721 80.1609 20.7079C79.8083 20.5951 79.4261 20.5353 79.0237 20.5353L76.9203 20.535Z" fill="#F95611"/>
<path d="M80.9845 21.1028C81.1679 21.5115 81.2692 21.9766 81.2692 22.4856C81.2692 24.418 79.8289 25.734 77.9535 25.734H76.1435V26.2272C76.1435 26.7179 76.4957 27 76.9207 27H79.0241C80.8994 27 82.3397 25.6837 82.3397 23.7516C82.3394 22.5914 81.8139 21.6591 80.9845 21.1028Z" fill="url(#paint0_linear_2045_47)"/>
<path d="M80.9845 21.1028C80.7493 20.5789 80.3789 20.1476 79.9122 19.8351C80.0323 20.1026 80.1168 20.3945 80.1609 20.7072C80.4589 20.8028 80.7352 20.9359 80.9845 21.1028Z" fill="#FF9F6B"/>
</g>
<defs>
<linearGradient id="paint0_linear_2045_47" x1="76.1435" y1="24.0514" x2="82.3397" y2="24.0514" gradientUnits="userSpaceOnUse">
<stop stop-color="#FFB738"/>
<stop offset="1" stop-color="#FFA300"/>
</linearGradient>
<clipPath id="clip0_2045_47">
<rect width="82.6875" height="27" fill="white"/>
</clipPath>
</defs>
</svg>
