<svg width="130" height="43" viewBox="0 0 130 43" fill="none" xmlns="http://www.w3.org/2000/svg">
<g clip-path="url(#clip0_2045_47)">
<path d="M13.6778 18.7548C13.7056 17.9346 13.3555 17.1449 12.7287 16.6148C11.725 15.8922 10.5905 15.3693 9.38884 15.0747C7.14226 14.5195 5.01746 13.5543 3.12099 12.2273C1.72415 11.1725 0.928133 9.49899 0.989916 7.75026C0.970217 5.88333 1.8898 4.12565 3.43438 3.07623C5.26728 1.80296 7.47267 1.17259 9.70223 1.28541C11.9694 1.18423 14.1981 1.90951 15.9701 3.32694C17.5048 4.53485 18.3707 6.40804 18.2982 8.35914V8.44868H13.7674C13.8041 7.46194 13.4083 6.50564 12.6839 5.83408C11.8396 5.12761 10.7561 4.77124 9.65747 4.84018C8.62506 4.77661 7.60161 5.06762 6.75634 5.66396C6.10538 6.17792 5.72841 6.96588 5.73558 7.79503C5.7508 8.54717 6.13672 9.24469 6.7653 9.65748C7.94097 10.3541 9.20618 10.8869 10.526 11.2424C12.6589 11.7375 14.6538 12.7046 16.3641 14.0718C17.6866 15.2377 18.4172 16.9389 18.3519 18.7011C18.4128 20.5707 17.5218 22.349 15.988 23.4199C14.1417 24.66 11.9408 25.2662 9.72015 25.148C7.35895 25.2009 5.03895 24.515 3.08517 23.1871C1.24779 21.9837 0.192998 19.8812 0.327309 17.6893V17.5908H4.97448C4.87509 18.7539 5.35055 19.8956 6.24596 20.6441C7.29985 21.3524 8.55969 21.6927 9.82759 21.6112C10.8582 21.681 11.8834 21.4034 12.7377 20.8232C13.3653 20.3254 13.7155 19.5544 13.6778 18.7548Z" fill="#484848"/>
<path d="M31.8367 22.3454C31.3469 23.2041 30.6476 23.9249 29.8041 24.4407C27.4635 25.7372 24.5257 25.3182 22.6409 23.4199C21.6138 22.2263 21.1008 20.4113 21.1008 17.9758V7.5264H25.7569V18.0295C25.6862 18.9688 25.9082 19.9081 26.3926 20.7158C26.8529 21.2781 27.5567 21.5852 28.2819 21.5395C28.9419 21.5539 29.5964 21.4321 30.2071 21.1814C30.73 20.945 31.1813 20.5743 31.5144 20.1069V7.5264H36.1884V24.8346H32.2038L31.8367 22.3454Z" fill="#484848"/>
<path d="M55.0009 16.6596C55.1084 18.8605 54.478 21.0354 53.2101 22.8379C52.0452 24.3869 50.1854 25.2626 48.2496 25.1749C47.4168 25.1883 46.5913 25.0173 45.832 24.6735C45.1273 24.3243 44.5139 23.8157 44.0411 23.1871V31.4965H39.385V7.5264H43.5934L43.871 9.56793C44.3438 8.8525 44.975 8.25526 45.7156 7.82188C46.4883 7.39835 47.3595 7.18525 48.2406 7.20405C50.2239 7.12615 52.1123 8.07886 53.228 9.72015C54.5022 11.6811 55.129 13.993 55.0188 16.3283L55.0009 16.6596ZM50.3269 16.3014C50.3806 14.9296 50.1004 13.5659 49.5121 12.3258C49.0536 11.3713 48.0723 10.7731 47.0139 10.8036C46.3898 10.7857 45.7711 10.9343 45.2231 11.2334C44.7243 11.5307 44.316 11.9578 44.0411 12.469V20.0711C44.3205 20.5492 44.7306 20.9378 45.2231 21.1903C45.7809 21.4598 46.3952 21.5915 47.0139 21.5754C48.0275 21.638 48.9936 21.1205 49.5031 20.2412C50.0816 19.1389 50.3573 17.9033 50.3 16.6596L50.3269 16.3014Z" fill="#484848"/>
<path d="M65.1549 25.1749C62.9065 25.277 60.7208 24.4013 59.1646 22.7752C57.6495 21.1151 56.8455 18.924 56.9261 16.6775V16.0417C56.8347 13.7352 57.5895 11.4734 59.0482 9.68433C62.0084 6.54772 67.0173 6.38207 70.1781 9.31722C71.5373 10.8994 72.2366 12.9463 72.1301 15.0299V17.5729H61.7702V17.6714C61.815 18.71 62.2206 19.7013 62.9163 20.474C63.6327 21.2226 64.6391 21.6246 65.6742 21.5754C66.5445 21.5951 67.4131 21.4894 68.253 21.262C69.0311 21.0112 69.7814 20.6817 70.4915 20.277L71.754 23.1692C70.9267 23.8112 69.9892 24.2965 68.9872 24.6018C67.7498 25.0012 66.455 25.1946 65.1549 25.1749ZM64.734 10.8484C63.929 10.8215 63.1608 11.194 62.6835 11.8423C62.1543 12.6132 61.8445 13.514 61.7881 14.4479L61.8329 14.5285H67.5635V14.1166C67.6074 13.2669 67.3611 12.4261 66.8651 11.7348C66.3511 11.0946 65.5533 10.7463 64.734 10.8036V10.8484Z" fill="#484848"/>
<path d="M84.039 11.5378H82.3199C81.7208 11.5137 81.1263 11.6632 80.6096 11.9676C80.1565 12.264 79.8011 12.6875 79.5889 13.1854V24.8347H74.9327V7.52641H79.2934L79.4993 10.0873C79.8449 9.26082 80.3894 8.53106 81.0842 7.96516C81.7199 7.46015 82.5115 7.19153 83.3227 7.20406C83.5385 7.20227 83.7543 7.22018 83.9674 7.25779L84.5673 7.3921L84.039 11.5378Z" fill="#484848"/>
<path d="M95.6973 20.0711C95.6865 19.5311 95.4071 19.0306 94.9541 18.7369C94.107 18.2346 93.1704 17.8997 92.1962 17.752C90.5334 17.4914 88.9504 16.8575 87.567 15.8985C86.5345 15.1105 85.9489 13.8659 86 12.5676C85.9973 11.0758 86.6939 9.66643 87.8803 8.76207C89.3202 7.6634 91.1038 7.11094 92.9125 7.20406C94.7947 7.10557 96.6562 7.65266 98.1865 8.75312C99.4302 9.66106 100.138 11.1367 100.067 12.675V12.7735H95.5898C95.6131 12.1395 95.3731 11.5235 94.9272 11.0722C94.3891 10.6039 93.6862 10.3684 92.9752 10.4186C92.3314 10.3828 91.6948 10.5797 91.1844 10.9737C90.7689 11.3095 90.5307 11.819 90.5397 12.3527C90.5316 12.8774 90.7877 13.3725 91.2202 13.6689C92.0718 14.1462 93.0092 14.4497 93.9781 14.5643C95.6865 14.8159 97.3144 15.4597 98.7327 16.4447C99.7642 17.2676 100.341 18.5381 100.282 19.8562C100.298 21.3828 99.5475 22.82 98.285 23.6796C96.7297 24.729 94.8762 25.2474 93.0021 25.157C91.0232 25.2573 89.0757 24.6189 87.5401 23.3662C86.2928 22.4421 85.5576 20.9781 85.5612 19.4264V19.3368H89.8323C89.7876 20.1132 90.1215 20.8644 90.7277 21.3515C91.3948 21.7938 92.1846 22.0132 92.9842 21.9783C93.6799 22.0222 94.3703 21.8395 94.9541 21.459C95.4215 21.1536 95.7026 20.6298 95.6973 20.0711Z" fill="#484848"/>
<path d="M110.507 25.1749C108.262 25.277 106.079 24.4013 104.526 22.7752C103.011 21.1151 102.207 18.924 102.287 16.6775V16.0417C102.197 13.737 102.949 11.476 104.401 9.68433C107.361 6.54772 112.37 6.38207 115.531 9.31722C116.893 10.8976 117.59 12.9463 117.474 15.0299V17.5729H107.132V17.6714C107.174 18.7092 107.577 19.7004 108.269 20.474C108.987 21.2252 109.998 21.6273 111.036 21.5754C111.903 21.5951 112.768 21.4894 113.605 21.262C114.387 21.013 115.14 20.6835 115.853 20.277L117.115 23.1692C116.287 23.8094 115.35 24.2947 114.349 24.6018C113.108 25.0012 111.81 25.1946 110.507 25.1749ZM110.095 10.8484C109.29 10.8179 108.52 11.1913 108.045 11.8423C107.516 12.6141 107.207 13.514 107.15 14.4479L107.203 14.5285H112.934V14.1166C112.978 13.2669 112.731 12.4261 112.235 11.7348C111.72 11.0919 110.917 10.7427 110.095 10.8036V10.8484Z" fill="#484848"/>
<path d="M126.168 3.28217V7.5264H129.087V10.8036H126.168V19.6234C126.12 20.14 126.271 20.6558 126.589 21.065C126.884 21.3596 127.291 21.5163 127.708 21.4948C127.918 21.4957 128.127 21.4813 128.335 21.45C128.543 21.4169 128.749 21.3721 128.953 21.3157L129.356 24.6914C128.906 24.8481 128.445 24.9707 127.977 25.0585C127.497 25.1355 127.012 25.1749 126.526 25.1749C125.155 25.2662 123.806 24.7863 122.801 23.8497C121.832 22.6722 121.363 21.1608 121.494 19.6413V10.8036H118.969V7.5264H121.494V3.28217H126.168Z" fill="#484848"/>
<path d="M55.3438 34.8789V42.4375H53.6562V33.6602H55.2207L55.3438 34.8789ZM59.3574 36.7598V36.8828C59.3574 37.3438 59.3027 37.7715 59.1934 38.166C59.0879 38.5605 58.9316 38.9043 58.7246 39.1973C58.5176 39.4863 58.2598 39.7129 57.9512 39.877C57.6465 40.0371 57.2949 40.1172 56.8965 40.1172C56.5098 40.1172 56.1738 40.0391 55.8887 39.8828C55.6035 39.7266 55.3633 39.5078 55.168 39.2266C54.9766 38.9414 54.8223 38.6113 54.7051 38.2363C54.5879 37.8613 54.498 37.459 54.4355 37.0293V36.707C54.498 36.2461 54.5879 35.8242 54.7051 35.4414C54.8223 35.0547 54.9766 34.7207 55.168 34.4395C55.3633 34.1543 55.6016 33.9336 55.8828 33.7773C56.168 33.6211 56.502 33.543 56.8848 33.543C57.2871 33.543 57.6406 33.6191 57.9453 33.7715C58.2539 33.9238 58.5117 34.1426 58.7188 34.4277C58.9297 34.7129 59.0879 35.0527 59.1934 35.4473C59.3027 35.8418 59.3574 36.2793 59.3574 36.7598ZM57.6641 36.8828V36.7598C57.6641 36.4902 57.6406 36.2422 57.5938 36.0156C57.5508 35.7852 57.4805 35.584 57.3828 35.4121C57.2891 35.2402 57.1641 35.1074 57.0078 35.0137C56.8555 34.916 56.6699 34.8672 56.4512 34.8672C56.2207 34.8672 56.0234 34.9043 55.8594 34.9785C55.6992 35.0527 55.5684 35.1602 55.4668 35.3008C55.3652 35.4414 55.2891 35.6094 55.2383 35.8047C55.1875 36 55.1562 36.2207 55.1445 36.4668V37.2812C55.1641 37.5703 55.2188 37.8301 55.3086 38.0605C55.3984 38.2871 55.5371 38.4668 55.7246 38.5996C55.9121 38.7324 56.1582 38.7988 56.4629 38.7988C56.6855 38.7988 56.873 38.75 57.0254 38.6523C57.1777 38.5508 57.3008 38.4121 57.3945 38.2363C57.4922 38.0605 57.5605 37.8574 57.5996 37.627C57.6426 37.3965 57.6641 37.1484 57.6641 36.8828ZM60.1367 36.8945V36.7715C60.1367 36.3066 60.2031 35.8789 60.3359 35.4883C60.4688 35.0938 60.6621 34.752 60.916 34.4629C61.1699 34.1738 61.4824 33.9492 61.8535 33.7891C62.2246 33.625 62.6504 33.543 63.1309 33.543C63.6113 33.543 64.0391 33.625 64.4141 33.7891C64.7891 33.9492 65.1035 34.1738 65.3574 34.4629C65.6152 34.752 65.8105 35.0938 65.9434 35.4883C66.0762 35.8789 66.1426 36.3066 66.1426 36.7715V36.8945C66.1426 37.3555 66.0762 37.7832 65.9434 38.1777C65.8105 38.5684 65.6152 38.9102 65.3574 39.2031C65.1035 39.4922 64.791 39.7168 64.4199 39.877C64.0488 40.0371 63.623 40.1172 63.1426 40.1172C62.6621 40.1172 62.2344 40.0371 61.8594 39.877C61.4883 39.7168 61.1738 39.4922 60.916 39.2031C60.6621 38.9102 60.4688 38.5684 60.3359 38.1777C60.2031 37.7832 60.1367 37.3555 60.1367 36.8945ZM61.8242 36.7715V36.8945C61.8242 37.1602 61.8477 37.4082 61.8945 37.6387C61.9414 37.8691 62.0156 38.0723 62.1172 38.248C62.2227 38.4199 62.3594 38.5547 62.5273 38.6523C62.6953 38.75 62.9004 38.7988 63.1426 38.7988C63.377 38.7988 63.5781 38.75 63.7461 38.6523C63.9141 38.5547 64.0488 38.4199 64.1504 38.248C64.252 38.0723 64.3262 37.8691 64.373 37.6387C64.4238 37.4082 64.4492 37.1602 64.4492 36.8945V36.7715C64.4492 36.5137 64.4238 36.2715 64.373 36.0449C64.3262 35.8145 64.25 35.6113 64.1445 35.4355C64.043 35.2559 63.9082 35.1152 63.7402 35.0137C63.5723 34.9121 63.3691 34.8613 63.1309 34.8613C62.8926 34.8613 62.6895 34.9121 62.5215 35.0137C62.3574 35.1152 62.2227 35.2559 62.1172 35.4355C62.0156 35.6113 61.9414 35.8145 61.8945 36.0449C61.8477 36.2715 61.8242 36.5137 61.8242 36.7715ZM68.9902 38.3594L70.3086 33.6602H71.3809L71.0352 35.5059L69.7168 40H68.8203L68.9902 38.3594ZM68.3223 33.6602L69.2656 38.3535L69.3535 40H68.2988L66.6934 33.6602H68.3223ZM72.5879 38.2773L73.5078 33.6602H75.1426L73.5371 40H72.4883L72.5879 38.2773ZM71.5273 33.6602L72.8398 38.3242L73.0215 40H72.1191L70.8008 35.5117L70.4668 33.6602H71.5273ZM78.9102 40.1172C78.418 40.1172 77.9766 40.0391 77.5859 39.8828C77.1953 39.7227 76.8633 39.502 76.5898 39.2207C76.3203 38.9395 76.1133 38.6133 75.9688 38.2422C75.8242 37.8672 75.752 37.4688 75.752 37.0469V36.8125C75.752 36.332 75.8203 35.8926 75.957 35.4941C76.0938 35.0957 76.2891 34.75 76.543 34.457C76.8008 34.1641 77.1133 33.9395 77.4805 33.7832C77.8477 33.623 78.2617 33.543 78.7227 33.543C79.1719 33.543 79.5703 33.6172 79.918 33.7656C80.2656 33.9141 80.5566 34.125 80.791 34.3984C81.0293 34.6719 81.209 35 81.3301 35.3828C81.4512 35.7617 81.5117 36.1836 81.5117 36.6484V37.3516H76.4727V36.2266H79.8535V36.0977C79.8535 35.8633 79.8105 35.6543 79.7246 35.4707C79.6426 35.2832 79.5176 35.1348 79.3496 35.0254C79.1816 34.916 78.9668 34.8613 78.7051 34.8613C78.4824 34.8613 78.291 34.9102 78.1309 35.0078C77.9707 35.1055 77.8398 35.2422 77.7383 35.418C77.6406 35.5938 77.5664 35.8008 77.5156 36.0391C77.4688 36.2734 77.4453 36.5312 77.4453 36.8125V37.0469C77.4453 37.3008 77.4805 37.5352 77.5508 37.75C77.625 37.9648 77.7285 38.1504 77.8613 38.3066C77.998 38.4629 78.1621 38.584 78.3535 38.6699C78.5488 38.7559 78.7695 38.7988 79.0156 38.7988C79.3203 38.7988 79.6035 38.7402 79.8652 38.623C80.1309 38.502 80.3594 38.3203 80.5508 38.0781L81.3711 38.9688C81.2383 39.1602 81.0566 39.3438 80.8262 39.5195C80.5996 39.6953 80.3262 39.8398 80.0059 39.9531C79.6855 40.0625 79.3203 40.1172 78.9102 40.1172ZM84.1602 35.043V40H82.4727V33.6602H84.0605L84.1602 35.043ZM86.0703 33.6191L86.041 35.1836C85.959 35.1719 85.8594 35.1621 85.7422 35.1543C85.6289 35.1426 85.5254 35.1367 85.4316 35.1367C85.1934 35.1367 84.9863 35.168 84.8105 35.2305C84.6387 35.2891 84.4941 35.377 84.377 35.4941C84.2637 35.6113 84.1777 35.7539 84.1191 35.9219C84.0645 36.0898 84.0332 36.2812 84.0254 36.4961L83.6855 36.3906C83.6855 35.9805 83.7266 35.6035 83.8086 35.2598C83.8906 34.9121 84.0098 34.6094 84.166 34.3516C84.3262 34.0938 84.5215 33.8945 84.752 33.7539C84.9824 33.6133 85.2461 33.543 85.543 33.543C85.6367 33.543 85.7324 33.5508 85.8301 33.5664C85.9277 33.5781 86.0078 33.5957 86.0703 33.6191ZM89.668 40.1172C89.1758 40.1172 88.7344 40.0391 88.3438 39.8828C87.9531 39.7227 87.6211 39.502 87.3477 39.2207C87.0781 38.9395 86.8711 38.6133 86.7266 38.2422C86.582 37.8672 86.5098 37.4688 86.5098 37.0469V36.8125C86.5098 36.332 86.5781 35.8926 86.7148 35.4941C86.8516 35.0957 87.0469 34.75 87.3008 34.457C87.5586 34.1641 87.8711 33.9395 88.2383 33.7832C88.6055 33.623 89.0195 33.543 89.4805 33.543C89.9297 33.543 90.3281 33.6172 90.6758 33.7656C91.0234 33.9141 91.3145 34.125 91.5488 34.3984C91.7871 34.6719 91.9668 35 92.0879 35.3828C92.209 35.7617 92.2695 36.1836 92.2695 36.6484V37.3516H87.2305V36.2266H90.6113V36.0977C90.6113 35.8633 90.5684 35.6543 90.4824 35.4707C90.4004 35.2832 90.2754 35.1348 90.1074 35.0254C89.9395 34.916 89.7246 34.8613 89.4629 34.8613C89.2402 34.8613 89.0488 34.9102 88.8887 35.0078C88.7285 35.1055 88.5977 35.2422 88.4961 35.418C88.3984 35.5938 88.3242 35.8008 88.2734 36.0391C88.2266 36.2734 88.2031 36.5312 88.2031 36.8125V37.0469C88.2031 37.3008 88.2383 37.5352 88.3086 37.75C88.3828 37.9648 88.4863 38.1504 88.6191 38.3066C88.7559 38.4629 88.9199 38.584 89.1113 38.6699C89.3066 38.7559 89.5273 38.7988 89.7734 38.7988C90.0781 38.7988 90.3613 38.7402 90.623 38.623C90.8887 38.502 91.1172 38.3203 91.3086 38.0781L92.1289 38.9688C91.9961 39.1602 91.8145 39.3438 91.584 39.5195C91.3574 39.6953 91.084 39.8398 90.7637 39.9531C90.4434 40.0625 90.0781 40.1172 89.668 40.1172ZM96.9746 38.6172V31H98.6738V40H97.1445L96.9746 38.6172ZM92.9668 36.9062V36.7832C92.9668 36.2988 93.0215 35.8594 93.1309 35.4648C93.2402 35.0664 93.4004 34.7246 93.6113 34.4395C93.8223 34.1543 94.082 33.9336 94.3906 33.7773C94.6992 33.6211 95.0508 33.543 95.4453 33.543C95.8164 33.543 96.1406 33.6211 96.418 33.7773C96.6992 33.9336 96.9375 34.1562 97.1328 34.4453C97.332 34.7305 97.4922 35.0684 97.6133 35.459C97.7344 35.8457 97.8223 36.2695 97.877 36.7305V37C97.8223 37.4414 97.7344 37.8516 97.6133 38.2305C97.4922 38.6094 97.332 38.9414 97.1328 39.2266C96.9375 39.5078 96.6992 39.7266 96.418 39.8828C96.1367 40.0391 95.8086 40.1172 95.4336 40.1172C95.0391 40.1172 94.6875 40.0371 94.3789 39.877C94.0742 39.7168 93.8164 39.4922 93.6055 39.2031C93.3984 38.9141 93.2402 38.5742 93.1309 38.1836C93.0215 37.793 92.9668 37.3672 92.9668 36.9062ZM94.6543 36.7832V36.9062C94.6543 37.168 94.6738 37.4121 94.7129 37.6387C94.7559 37.8652 94.8242 38.0664 94.918 38.2422C95.0156 38.4141 95.1406 38.5488 95.293 38.6465C95.4492 38.7402 95.6387 38.7871 95.8613 38.7871C96.1504 38.7871 96.3887 38.7227 96.5762 38.5938C96.7637 38.4609 96.9062 38.2793 97.0039 38.0488C97.1055 37.8184 97.1641 37.5527 97.1797 37.252V36.4844C97.168 36.2383 97.1328 36.0176 97.0742 35.8223C97.0195 35.623 96.9375 35.4531 96.8281 35.3125C96.7227 35.1719 96.5898 35.0625 96.4297 34.9844C96.2734 34.9062 96.0879 34.8672 95.873 34.8672C95.6543 34.8672 95.4668 34.918 95.3105 35.0195C95.1543 35.1172 95.0273 35.252 94.9297 35.4238C94.8359 35.5957 94.7656 35.7988 94.7188 36.0332C94.6758 36.2637 94.6543 36.5137 94.6543 36.7832ZM102.98 31H104.668V38.5469L104.498 40H102.98V31ZM108.682 36.7656V36.8887C108.682 37.3613 108.631 37.7949 108.529 38.1895C108.432 38.584 108.279 38.9258 108.072 39.2148C107.865 39.5 107.607 39.7227 107.299 39.8828C106.994 40.0391 106.635 40.1172 106.221 40.1172C105.834 40.1172 105.498 40.0391 105.213 39.8828C104.932 39.7266 104.695 39.5059 104.504 39.2207C104.312 38.9355 104.158 38.6016 104.041 38.2188C103.924 37.8359 103.836 37.418 103.777 36.9648V36.6953C103.836 36.2422 103.924 35.8242 104.041 35.4414C104.158 35.0586 104.312 34.7246 104.504 34.4395C104.695 34.1543 104.932 33.9336 105.213 33.7773C105.494 33.6211 105.826 33.543 106.209 33.543C106.627 33.543 106.99 33.623 107.299 33.7832C107.611 33.9395 107.869 34.1621 108.072 34.4512C108.279 34.7363 108.432 35.0762 108.529 35.4707C108.631 35.8613 108.682 36.293 108.682 36.7656ZM106.994 36.8887V36.7656C106.994 36.5078 106.975 36.2656 106.936 36.0391C106.9 35.8086 106.838 35.6074 106.748 35.4355C106.658 35.2598 106.535 35.1211 106.379 35.0195C106.227 34.918 106.029 34.8672 105.787 34.8672C105.557 34.8672 105.361 34.9062 105.201 34.9844C105.041 35.0625 104.908 35.1719 104.803 35.3125C104.701 35.4531 104.625 35.6211 104.574 35.8164C104.523 36.0078 104.492 36.2188 104.48 36.4492V37.2168C104.492 37.5254 104.543 37.7988 104.633 38.0371C104.727 38.2715 104.867 38.457 105.055 38.5938C105.246 38.7266 105.494 38.793 105.799 38.793C106.037 38.793 106.234 38.7461 106.391 38.6523C106.547 38.5586 106.668 38.4258 106.754 38.2539C106.844 38.082 106.906 37.8809 106.941 37.6504C106.977 37.416 106.994 37.1621 106.994 36.8887ZM111.541 39.2852L113.223 33.6602H115.033L112.484 40.9551C112.43 41.1152 112.355 41.2871 112.262 41.4707C112.172 41.6543 112.049 41.8281 111.893 41.9922C111.74 42.1602 111.547 42.2969 111.312 42.4023C111.082 42.5078 110.799 42.5605 110.463 42.5605C110.303 42.5605 110.172 42.5508 110.07 42.5312C109.969 42.5117 109.848 42.4844 109.707 42.4492V41.2129C109.75 41.2129 109.795 41.2129 109.842 41.2129C109.889 41.2168 109.934 41.2188 109.977 41.2188C110.199 41.2188 110.381 41.1934 110.521 41.1426C110.662 41.0918 110.775 41.0137 110.861 40.9082C110.947 40.8066 111.016 40.6738 111.066 40.5098L111.541 39.2852ZM110.838 33.6602L112.215 38.2539L112.455 40.041L111.307 40.1641L109.027 33.6602H110.838Z" fill="#484848"/>
<path d="M119.588 38.9085V39.6416C119.588 40.3678 120.109 40.7851 120.737 40.7851H121.171V38.908H119.588V38.9085Z" fill="#FF9F6B"/>
<path d="M128.755 35.9793C128.755 35.2261 128.606 34.5379 128.334 33.9332C127.966 33.6858 127.556 33.4889 127.115 33.3479C127.15 33.5913 127.168 33.8427 127.168 34.1021C127.168 36.9614 125.037 38.9085 122.262 38.9085H121.171V40.7857H123.849C126.624 40.7857 128.755 38.8385 128.755 35.9793Z" fill="#FF7D11"/>
<path d="M120.737 31.2188H123.85C124.947 31.2188 125.944 31.5187 126.748 32.0575C125.995 30.3782 124.303 29.3416 122.262 29.3416H119.15C118.521 29.3416 118 29.8054 118 30.5316V37.765C118 38.4912 118.521 38.9085 119.15 38.9085H119.587V32.4088C119.588 31.6826 120.109 31.2188 120.737 31.2188Z" fill="#FD886D"/>
<path d="M121.171 34.2825C121.171 33.5563 121.692 33.0925 122.321 33.0925H125.433C126.029 33.0925 126.595 33.181 127.116 33.3479C127.051 32.8856 126.925 32.4538 126.748 32.0574C125.944 31.5187 124.947 31.2188 123.85 31.2188H120.737C120.109 31.2188 119.588 31.6826 119.588 32.4088V38.9085H121.171V34.2825Z" fill="#FE6E42"/>
<path d="M122.321 33.0925C121.692 33.0925 121.171 33.5563 121.171 34.2825V38.909H122.262C125.037 38.909 127.168 36.9613 127.168 34.1026C127.168 33.8432 127.15 33.5913 127.116 33.3484C126.594 33.1815 126.029 33.093 125.433 33.093L122.321 33.0925Z" fill="#F95611"/>
<path d="M128.335 33.9326C128.606 34.5374 128.756 35.2256 128.756 35.9787C128.756 38.838 126.625 40.7851 123.85 40.7851H121.172V41.5148C121.172 42.241 121.693 42.6583 122.322 42.6583H125.434C128.209 42.6583 130.34 40.7107 130.34 37.8519C130.339 36.1352 129.562 34.7558 128.335 33.9326Z" fill="url(#paint0_linear_2045_47)"/>
<path d="M128.334 33.9326C127.986 33.1575 127.438 32.5192 126.748 32.0569C126.926 32.4528 127.051 32.8846 127.116 33.3474C127.557 33.4888 127.966 33.6857 128.334 33.9326Z" fill="#FF9F6B"/>
</g>
<defs>
<linearGradient id="paint0_linear_2045_47" x1="121.172" y1="38.2955" x2="130.34" y2="38.2955" gradientUnits="userSpaceOnUse">
<stop stop-color="#FFB738"/>
<stop offset="1" stop-color="#FFA300"/>
</linearGradient>
<clipPath id="clip0_2045_47">
<rect width="130" height="42.449" fill="white"/>
</clipPath>
</defs>
</svg>
