<svg xmlns="http://www.w3.org/2000/svg" xml:space="preserve" id="svg14" version="1.1" viewBox="0 0 130 27"><path id="path2" fill="#000" d="M118.064 19.13c0 1.596 3.364 2.334 5.583 2.334 3.527 0 6.353-1.476 6.353-4.748 0-2.693-1.985-3.59-4.041-4.169-2.616-.738-3.55-.838-3.55-1.655 0-.698.701-1.157 1.728-1.157 1.612 0 2.009.538 3.224.538 1.004 0 1.682-.638 1.682-1.516 0-1.236-1.682-2.134-4.719-2.134-3.153 0-5.979 1.456-5.979 4.548 0 2.573 2.032 3.291 3.994 3.83 2.149.598 3.597.818 3.597 1.895 0 .698-.537 1.336-2.009 1.336-1.938 0-3.153-.818-4.087-.818-1.145 0-1.776.838-1.776 1.716Z"/>
    <path id="path4" fill="#000"
          d="M112.809 6.48c-1.032 0-1.876.65-1.876 1.81v11.5c0 1.114.844 1.81 1.876 1.81s1.876-.65 1.876-1.81V8.29c-.047-1.114-.891-1.81-1.876-1.81ZM96.255 18.215c-2.392 0-4.08-1.762-4.08-4.174 0-2.365 1.735-4.128 4.08-4.128 2.392 0 4.08 1.763 4.08 4.128 0 2.412-1.595 4.174-4.08 4.174Zm0-11.733c-4.361 0-7.691 3.246-7.691 7.559 0 4.36 3.33 7.56 7.69 7.56 4.362 0 7.692-3.293 7.692-7.606s-3.33-7.513-7.691-7.513ZM78.857 18.029h-3.095v-7.976h3.095c2.485 0 4.173 1.484 4.173 3.942s-1.641 4.034-4.173 4.034Zm0-11.408h-4.924c-.985 0-1.83.742-1.83 1.855v11.223c0 1.113.845 1.762 1.83 1.762h4.924c4.408 0 7.737-3.014 7.737-7.466.047-4.406-3.33-7.374-7.737-7.374ZM62.02 18.215c-2.391 0-4.08-1.762-4.08-4.174 0-2.365 1.735-4.128 4.08-4.128 2.392 0 4.08 1.763 4.08 4.128 0 2.412-1.594 4.174-4.08 4.174Zm0-11.733c-4.361 0-7.69 3.246-7.69 7.559 0 4.36 3.329 7.56 7.69 7.56 4.361 0 7.691-3.293 7.691-7.606s-3.33-7.513-7.69-7.513ZM44.67 18.029h-3.095v-7.976h3.095c2.485 0 4.174 1.484 4.174 3.942s-1.689 4.034-4.174 4.034Zm0-11.408h-4.924c-.985 0-1.829.742-1.829 1.855v11.223c0 1.113.844 1.762 1.829 1.762h4.924c4.408 0 7.738-3.014 7.738-7.466 0-4.406-3.377-7.374-7.738-7.374Z"/>
    <path id="path12" fill="#fff"
          d="M20.583 16.2a13.212 13.212 0 0 1-5.922 1.825 17.121 17.121 0 0 1-4.772-.435c-.001.438-.047.875-.139 1.304 1.34.298 2.71.459 4.086.478-.093.478-.644 2.216-1.975 3.301 2.464.088 4.726-.825 5.416-2.041a9.88 9.88 0 0 1-3.08.39c.045-.13.138-.215.184-.346 2.11-.088 4.406-.738 4.865-2.389-.826.522-2.616 1.129-4.498 1.216 0-.13.046-.215.046-.347 2.465-.291 5.096-1.303 5.783-2.954"/>
    <style id="style178" type="text/css">.st0{fill:#ff9f6b}</style>
    <g id="g199" transform="matrix(.01009 0 0 .01013 5.488 0)"><path id="path180" d="M320.1 1914.2v146.7c0 145.3 104.7 228.8 231 228.8h87.1v-375.6H320.1Z" class="st0"/>
        <path id="path182"
              d="M2161.7 1328.1c0-150.7-30-288.4-84.6-409.4-74-49.5-156.2-88.9-244.8-117.1 6.9 48.7 10.5 99 10.5 150.9 0 572.1-428.1 961.7-985.5 961.7H638.1v375.6h538c557.5 0 985.6-389.6 985.6-961.7z"
              style="fill:#ff7d11"/>
        <path id="path184"
              d="M551.1 375.6h625.2c220.5 0 420.7 60 582.2 167.8C1607.3 207.4 1267.3 0 857.4 0H232.2C105.9 0 1.2 92.8 1.2 238.1v1447.3c0 145.3 104.7 228.8 231 228.8H320V613.7c.1-145.3 104.8-238.1 231.1-238.1Z"
              style="fill:#fd886d"/>
        <path id="path186"
              d="M638.2 988.6c0-145.3 104.7-238.1 231-238.1h625.2c119.6 0 233.3 17.7 338 51.1-13.1-92.5-38.3-178.9-73.9-258.2-161.5-107.8-361.8-167.8-582.2-167.8H551.1c-126.3 0-231 92.8-231 238.1v1300.5h318.1z"
              style="fill:#fe6e42"/>
        <path id="path188"
              d="M869.2 750.5c-126.3 0-231 92.8-231 238.1v925.7h219.2c557.4 0 985.5-389.7 985.5-961.7 0-51.9-3.6-102.3-10.5-150.9-104.8-33.4-218.4-51.1-338-51.1z"
              style="fill:#f95611"/>
        <linearGradient id="SVGID_1_" x1="638.3" x2="2480" y1="877.14" y2="877.14"
                        gradientTransform="matrix(1 0 0 -1 0 2668.69)" gradientUnits="userSpaceOnUse"><stop id="stop190" offset="0" style="stop-color:#ffb738"/>
            <stop id="stop192" offset="1" style="stop-color:#ffa300"/></linearGradient>
        <path id="path195"
              d="M2077.2 918.6c54.5 121 84.6 258.7 84.6 409.4 0 572.1-428.1 961.7-985.5 961.7h-538v146c0 145.3 104.7 228.8 231 228.8h625.2c557.4 0 985.5-389.7 985.5-961.7-.1-343.5-156.3-619.5-402.8-784.2z"
              style="fill:url(#SVGID_1_)"/>
        <path id="path197"
              d="M2077.2 918.6c-69.9-155.1-180-282.8-318.7-375.3 35.7 79.2 60.8 165.6 73.9 258.2 88.6 28.3 170.7 67.7 244.8 117.1z"
              class="st0"/></g></svg>
